<?xml version="1.0" encoding="UTF-8"?>
<svg xmlns="http://www.w3.org/2000/svg" 
     viewBox="0 0 1080 1080" 
     width="512" height="512">
  <title>Logia Alioth No. 44 - Escuadra y Compás</title>
  <desc>Símbolo masónico vectorizado - Escuadra, Compás y letra G</desc>
  <g fill="#f5f0e8" transform="translate(0,1080) scale(0.1,-0.1)">
    <path d="M5258 10720 c-384 -65 -680 -357 -748 -737 -16 -89 -8 -294 15 -383
42 -162 165 -357 288 -458 178 -147 357 -212 587 -214 236 -1 446 81 614 242
205 196 298 425 283 703 -19 378 -265 697 -627 815 -117 39 -292 52 -412 32z
m285 -206 c201 -44 379 -179 473 -358 53 -100 74 -177 81 -292 20 -343 -213
-649 -548 -720 -117 -25 -272 -16 -380 22 -174 61 -313 185 -395 349 -120 243
-95 523 67 736 164 215 444 320 702 263z"/>
    <path d="M5258 10405 c-105 -26 -187 -74 -273 -160 -127 -125 -179 -248 -177
-417 1 -107 21 -189 70 -282 115 -221 391 -353 631 -302 147 31 274 109 356
218 92 122 126 223 126 367 -1 163 -58 300 -175 417 -78 78 -194 143 -294 163
-71 15 -194 13 -264 -4z m207 -215 l59 -60 88 0 88 0 0 -86 0 -86 65 -67 64
-67 -64 -64 -65 -64 0 -86 0 -85 -80 3 -80 4 -70 -68 -70 -67 -70 67 -70 68
-80 -4 -80 -3 0 85 0 84 -65 66 -65 66 65 64 65 64 0 88 0 88 88 0 88 0 59 60
c33 33 62 60 65 60 3 0 32 -27 65 -60z"/>
    <path d="M5350 10105 c-44 -45 -45 -45 -112 -45 l-68 0 0 -68 0 -68 -50 -49
-50 -49 50 -51 c48 -48 49 -52 52 -115 l3 -65 65 -3 c62 -3 67 -5 113 -50 l47
-46 48 46 c45 45 50 47 112 50 l65 3 3 65 c3 63 4 67 52 115 l50 51 -50 49
-50 49 0 68 0 68 -68 0 c-67 0 -68 0 -112 45 -24 25 -47 45 -50 45 -3 0 -26
-20 -50 -45z"/>
    <path d="M4642 9123 c-11 -21 -154 -321 -317 -668 -339 -717 -565 -1195 -820
-1735 -97 -206 -292 -618 -432 -915 -141 -297 -296 -625 -346 -730 -49 -104
-107 -228 -129 -274 l-39 -85 -382 380 c-402 401 -427 421 -549 454 -95 25
-275 -3 -344 -55 -18 -13 14 -47 543 -577 l562 -563 -22 -42 -22 -43 -610 610
c-588 588 -611 610 -658 620 -99 21 -210 9 -312 -34 l-39 -17 739 -739 739
-739 -19 -40 c-10 -23 -21 -41 -24 -41 -3 0 -281 275 -616 611 -336 335 -641
634 -680 663 -142 107 -316 188 -485 224 -91 20 -330 41 -320 29 3 -4 436
-438 963 -965 l957 -959 -101 -214 c-56 -118 -219 -464 -364 -769 -144 -305
-356 -753 -470 -995 -114 -242 -221 -467 -238 -500 -18 -37 -54 -155 -93 -310
-35 -137 -62 -250 -61 -251 1 -1 68 75 148 170 l146 172 250 454 c138 250 429
781 648 1180 218 399 403 735 411 747 13 21 71 -35 1578 -1545 l1565 -1567
1561 1560 c858 858 1565 1560 1570 1560 9 0 89 -144 550 -985 98 -179 311
-567 473 -863 l296 -537 128 -152 c70 -83 138 -163 150 -177 26 -31 31 -58
-43 239 l-55 225 -326 690 c-180 380 -389 823 -466 985 -297 629 -408 865
-410 871 -1 3 429 440 957 970 1083 1089 993 980 790 959 -218 -22 -399 -84
-569 -194 -78 -50 -178 -146 -725 -692 -350 -349 -638 -634 -641 -634 -3 0
-14 18 -24 41 l-19 40 739 739 738 738 -37 16 c-110 46 -212 57 -313 36 -47
-10 -70 -32 -658 -620 l-610 -610 -22 43 -22 42 562 563 c631 632 582 568 468
614 -46 19 -76 23 -166 23 -104 0 -114 -2 -185 -34 -72 -33 -92 -52 -461 -419
-213 -211 -389 -380 -392 -375 -3 5 -41 85 -85 178 -44 94 -294 625 -557 1180
-263 556 -555 1174 -650 1375 -434 919 -778 1647 -792 1673 l-14 29 -52 -49
c-181 -171 -386 -260 -624 -270 -68 -3 -123 -7 -123 -9 0 -5 293 -711 784
-1892 l181 -435 55 -14 c155 -40 349 -186 515 -388 189 -231 211 -268 832
-1405 80 -146 154 -280 165 -297 l19 -33 -1242 -1237 c-683 -681 -1245 -1238
-1249 -1238 -4 0 -566 557 -1249 1237 l-1241 1237 171 313 c415 757 601 1093
645 1160 231 356 487 592 712 654 l59 16 66 162 c36 88 163 395 282 681 119
286 286 687 371 891 l154 372 -46 108 c-47 113 -55 124 -90 124 -12 0 -62 12
-110 26 -147 42 -286 122 -403 230 l-60 55 -19 -38z m2097 -6439 l1338 1338
22 -35 c11 -19 21 -38 21 -43 0 -5 -612 -621 -1360 -1369 l-1360 -1360 -1360
1360 c-748 748 -1360 1364 -1360 1370 0 5 9 25 21 44 l21 34 1339 -1339 1339
-1339 1339 1339z m-2777 -471 l1438 -1438 1438 1438 c790 790 1440 1437 1443
1437 3 0 14 -18 24 -41 l19 -40 -1462 -1462 -1462 -1462 -1460 1460 c-803 803
-1460 1465 -1460 1472 0 13 33 73 40 73 3 0 652 -647 1442 -1437z"/>
    <path d="M5120 5920 c-310 -33 -562 -144 -764 -339 -241 -232 -356 -516 -356
-878 0 -375 117 -674 355 -909 152 -150 307 -240 512 -296 67 -19 106 -22 278
-22 203 -1 231 2 374 45 64 19 118 46 266 132 92 54 162 82 227 92 56 8 154
-15 218 -52 59 -35 142 -114 166 -158 17 -32 48 -54 61 -42 3 3 6 209 6 459 2
488 6 524 54 572 27 27 81 41 206 51 73 6 77 8 77 31 l0 24 -765 0 -765 0 0
-24 c0 -23 3 -24 98 -31 258 -17 277 -37 295 -317 13 -200 -1 -511 -25 -569
-22 -52 -83 -106 -140 -125 -69 -23 -207 -16 -263 13 -165 85 -264 355 -304
828 -14 154 -14 484 -1 600 37 323 131 578 261 706 95 95 146 114 304 112 139
-1 234 -26 345 -90 226 -133 425 -451 536 -860 2 -7 15 -13 29 -13 l25 0 0
531 0 530 -31 -3 c-30 -3 -32 -6 -51 -77 -34 -134 -69 -180 -141 -188 -38 -5
-61 4 -213 77 -221 107 -318 144 -442 170 -118 24 -310 33 -432 20z"/>
  </g>
</svg>